<svg width="24" height="25" viewBox="0 0 24 25" fill="none" xmlns="http://www.w3.org/2000/svg"><path d="M16.0528 18.8897L16.0254 22.0065L12.6772 24.0673C12.2601 24.3241 11.7368 24.3353 11.3091 24.0967L7.93251 22.2135L7.90038 19.0385L11.3548 20.9684C11.7827 21.2074 12.3065 21.1963 12.7239 20.9393L16.0528 18.8897ZM6.71894 3.20052L6.69121 6.38903L4.82244 7.54764C4.42451 7.79434 4.18244 8.22928 4.18244 8.69749V16.0166C4.18244 16.4889 4.42877 16.9271 4.83232 17.1725L6.58804 18.2403L6.56065 21.3791L2.16647 18.7064C1.76293 18.4609 1.5166 18.0228 1.5166 17.5505V7.17876C1.5166 6.71052 1.7587 6.27558 2.15666 6.02888L6.71894 3.20052ZM17.2132 3.42172L21.8249 6.16058C22.2353 6.40435 22.487 6.84642 22.487 7.32383V17.5504C22.487 18.0372 22.2254 18.4866 21.8019 18.7269L17.3928 21.2299L17.3617 18.1463L19.1357 17.1394C19.5591 16.899 19.8208 16.4497 19.8208 15.9628V8.87611C19.8208 8.39873 19.5692 7.95673 19.1588 7.71293L17.245 6.57607L17.2132 3.42172ZM12.6847 0.492918L16.1928 2.81561L16.1657 5.93512L12.7143 3.64685C12.2791 3.3583 11.7167 3.34599 11.2692 3.61516L7.7661 5.72271L7.73431 2.57107L11.2403 0.461706C11.6875 0.192667 12.2496 0.204813 12.6847 0.492918Z" fill="#1D2331"></path><path d="M10.1055 15.3714L10.3583 14.8448H13.8466L14.5311 16.524H17.3225L13.3233 7.05355H10.8137L6.81439 16.524H8.2713C9.05405 16.524 9.76735 16.0758 10.1055 15.3714ZM13.2549 12.8035H11.153L12.2039 10.0727L13.2549 12.8035Z" fill="#EA4A35"></path><path d="M8.37234 16.524H6.81439L10.8137 7.05355H13.3233L10.278 15.2036C9.98138 15.9975 9.22154 16.524 8.37234 16.524Z" fill="#C31A03"></path></svg>